<svg width="338" height="184" viewBox="0 0 338 184" fill="none" xmlns="http://www.w3.org/2000/svg">
<path fill-rule="evenodd" clip-rule="evenodd" d="M317.258 3.88472C324.817 -3.67486 337.743 1.67915 337.743 12.37V220.232C337.743 230.923 324.817 236.277 317.258 228.717L213.327 124.786C208.64 120.1 208.64 112.502 213.327 107.816L317.258 3.88472Z" fill="#7EAACD"/>
<path fill-rule="evenodd" clip-rule="evenodd" d="M20.4853 3.84578C12.9257 -3.7138 -1.52588e-05 1.64021 -1.52588e-05 12.3311V220.193C-1.52588e-05 230.884 12.9257 236.238 20.4853 228.678L124.416 124.747C129.102 120.061 129.102 112.463 124.416 107.777L20.4853 3.84578Z" fill="#7EAACD"/>
<path d="M161.076 79.978C165.442 75.8623 172.259 75.8623 176.624 79.978L321.984 217.018C329.448 224.055 324.468 236.597 314.21 236.597H23.4903C13.232 236.597 8.25196 224.055 15.7161 217.018L161.076 79.978Z" fill="#A3C2DB"/>
</svg>
