<svg width="25" height="24" viewBox="0 0 25 24" fill="none" xmlns="http://www.w3.org/2000/svg">
<path d="M6.94772 7.96942C7.26206 5.14032 9.65337 3 12.4999 3V3C15.3464 3 17.7377 5.14032 18.052 7.96942L18.3038 10.2356C18.307 10.2645 18.3087 10.279 18.3103 10.2933C18.4392 11.4169 18.805 12.5005 19.3834 13.4725C19.3908 13.4849 19.3983 13.4973 19.4132 13.5222L19.9913 14.4856C20.5158 15.3599 20.7781 15.797 20.7215 16.1559C20.6838 16.3946 20.5609 16.6117 20.3755 16.7668C20.097 17 19.5872 17 18.5676 17H6.43211C5.41256 17 4.90279 17 4.62421 16.7668C4.43885 16.6117 4.31596 16.3946 4.27829 16.1559C4.22167 15.797 4.48395 15.3599 5.0085 14.4856L5.58653 13.5222C5.60149 13.4973 5.60897 13.4849 5.61632 13.4725C6.19476 12.5005 6.56052 11.4169 6.68946 10.2933C6.6911 10.279 6.69271 10.2645 6.69592 10.2356L6.94772 7.96942Z" stroke="currentColor" stroke-width="2"/>
<path d="M9.6021 17.6647C9.77302 18.6215 10.1497 19.467 10.6736 20.0701C11.1975 20.6731 11.8395 21 12.4999 21C13.1603 21 13.8022 20.6731 14.3262 20.0701C14.8501 19.467 15.2267 18.6215 15.3977 17.6647" stroke="currentColor" stroke-width="2" stroke-linecap="round"/>
</svg>
