<svg width="32" height="32" viewBox="0 0 32 32" fill="none" xmlns="http://www.w3.org/2000/svg">
<path d="M10.6665 13.3332C10.6665 12.6259 10.9475 11.9476 11.4476 11.4476C11.9476 10.9475 12.6259 10.6665 13.3332 10.6665H23.9998C24.7071 10.6665 25.3854 10.9475 25.8855 11.4476C26.3856 11.9476 26.6665 12.6259 26.6665 13.3332V23.9998C26.6665 24.7071 26.3856 25.3854 25.8855 25.8855C25.3854 26.3856 24.7071 26.6665 23.9998 26.6665H13.3332C12.6259 26.6665 11.9476 26.3856 11.4476 25.8855C10.9475 25.3854 10.6665 24.7071 10.6665 23.9998V13.3332Z" stroke="#4682B4" stroke-width="2" stroke-linecap="round" stroke-linejoin="round"/>
<path d="M21.3333 10.6666V7.99992C21.3333 7.29267 21.0523 6.6144 20.5522 6.1143C20.0521 5.6142 19.3738 5.33325 18.6666 5.33325H7.99992C7.29267 5.33325 6.6144 5.6142 6.1143 6.1143C5.6142 6.6144 5.33325 7.29267 5.33325 7.99992V18.6666C5.33325 19.3738 5.6142 20.0521 6.1143 20.5522C6.6144 21.0523 7.29267 21.3333 7.99992 21.3333H10.6666" stroke="#4682B4" stroke-width="2" stroke-linecap="round" stroke-linejoin="round"/>
</svg>
