<svg width="25" height="24" viewBox="0 0 25 24" fill="none" xmlns="http://www.w3.org/2000/svg">
<path fill-rule="evenodd" clip-rule="evenodd" d="M10.4394 12.6465L8.19217 11.8975L8.19217 11.8975L8.19216 11.8975C5.83896 11.1131 4.66235 10.7209 4.66235 10.0001C4.66235 9.27934 5.83896 8.88713 8.19218 8.10273L16.7053 5.26501C18.3611 4.71308 19.189 4.43711 19.626 4.87413C20.0631 5.31114 19.7871 6.13904 19.2352 7.79483L16.3974 16.308L16.3974 16.308L16.3974 16.308C15.613 18.6612 15.2208 19.8378 14.5001 19.8378C13.7793 19.8378 13.3871 18.6612 12.6027 16.308L11.8536 14.0608L16.2072 9.7072C16.5977 9.31668 16.5977 8.68351 16.2072 8.29299C15.8167 7.90247 15.1835 7.90247 14.793 8.29299L10.4394 12.6465Z" fill="white"/>
</svg>
